<svg width="226" height="32" viewBox="0 0 226 32" fill="none" xmlns="http://www.w3.org/2000/svg">
<path d="M107.816 28.2212C107.816 28.6239 107.737 29.0227 107.582 29.3948C107.428 29.7668 107.202 30.1048 106.917 30.3895C106.632 30.6741 106.294 30.8998 105.921 31.0536C105.549 31.2074 105.15 31.2864 104.747 31.286H4.31773C3.50375 31.2868 2.72275 30.9644 2.1465 30.3897C1.57025 29.8149 1.24593 29.0349 1.24487 28.2212V3.78003C1.24593 2.96589 1.57012 2.18545 2.14626 1.61006C2.72239 1.03468 3.50338 0.711393 4.31773 0.711182H104.746C105.149 0.711182 105.549 0.790565 105.921 0.944799C106.293 1.09903 106.632 1.32509 106.917 1.61007C107.202 1.89505 107.428 2.23337 107.582 2.60569C107.736 2.97802 107.815 3.37706 107.815 3.78003L107.816 28.2212Z" fill="white"/>
<path d="M104.747 32H4.31771C3.31498 31.9998 2.35328 31.6019 1.64364 30.8937C0.933997 30.1854 0.534379 29.2246 0.532471 28.2222L0.532471 3.78184C0.533954 2.77887 0.933308 1.81745 1.64293 1.10846C2.35255 0.399485 3.31448 0.000846542 4.31771 0L104.746 0C105.749 0.00126895 106.711 0.400043 107.421 1.10893C108.13 1.81782 108.53 2.779 108.532 3.78184V28.2222C108.533 30.3059 106.832 32 104.747 32Z" fill="#141520"/>
<path d="M107.816 28.2212C107.816 28.6239 107.737 29.0227 107.582 29.3948C107.428 29.7668 107.202 30.1048 106.917 30.3895C106.632 30.6741 106.294 30.8998 105.921 31.0536C105.549 31.2074 105.15 31.2864 104.747 31.286H4.31773C3.50375 31.2868 2.72275 30.9644 2.1465 30.3897C1.57025 29.8149 1.24593 29.0349 1.24487 28.2212V3.78003C1.24593 2.96589 1.57012 2.18545 2.14626 1.61006C2.72239 1.03468 3.50338 0.711393 4.31773 0.711182H104.746C105.149 0.711182 105.549 0.790565 105.921 0.944799C106.293 1.09903 106.632 1.32509 106.917 1.61007C107.202 1.89505 107.428 2.23337 107.582 2.60569C107.736 2.97802 107.815 3.37706 107.815 3.78003L107.816 28.2212Z" fill="#141520"/>
<path d="M24.6481 15.8349C24.6249 13.2557 26.7604 12.001 26.8581 11.9426C25.6486 10.1797 23.774 9.93884 23.1153 9.91963C21.5408 9.75398 20.0136 10.8615 19.2116 10.8615C18.3935 10.8615 17.1585 9.93564 15.8273 9.96284C14.1144 9.98925 12.5119 10.9807 11.6331 12.5203C9.81929 15.6596 11.172 20.2729 12.9098 22.8104C13.779 24.0539 14.7948 25.4407 16.1243 25.3919C17.425 25.3391 17.9109 24.5637 19.4805 24.5637C21.0357 24.5637 21.492 25.3919 22.8479 25.3607C24.2439 25.3391 25.1228 24.1123 25.9616 22.8584C26.9661 21.4348 27.3696 20.0312 27.3856 19.9592C27.3536 19.948 24.6753 18.9253 24.6481 15.8349ZM22.0867 8.25037C22.7863 7.37573 23.2649 6.1858 23.1321 4.97827C22.1195 5.02308 20.8532 5.67846 20.1241 6.5339C19.4789 7.28771 18.9026 8.52325 19.0515 9.68517C20.1889 9.76999 21.3567 9.11141 22.0867 8.25037Z" fill="white"/>
<path d="M43.4877 25.2066H41.6699L40.6742 22.0786H37.2131L36.2646 25.2066H34.4949L37.9247 14.5573H40.0427L43.4877 25.2066ZM40.374 20.7662L39.4736 17.9854C39.3783 17.7014 39.199 17.0324 38.9365 15.9793H38.9045C38.7988 16.4322 38.6299 17.1012 38.3986 17.9854L37.5133 20.7662H40.374ZM52.2909 21.2727C52.2909 22.5787 51.9363 23.611 51.2263 24.3688C50.5908 25.0434 49.8007 25.3803 48.8586 25.3803C47.8413 25.3803 47.1097 25.0178 46.6654 24.2912V28.3203H44.9589V20.0516C44.9589 19.2314 44.9373 18.3904 44.8957 17.5277H46.3965L46.4917 18.7449H46.5238C47.0929 17.8278 47.9565 17.3693 49.1156 17.3693C50.0217 17.3693 50.7781 17.727 51.3832 18.4432C51.9875 19.161 52.2909 20.1036 52.2909 21.2727ZM50.5523 21.3352C50.5523 20.5878 50.3843 19.9716 50.0465 19.4859C49.6775 18.9809 49.182 18.728 48.5609 18.728C48.1398 18.728 47.7572 18.8689 47.4154 19.1466C47.0729 19.4266 46.8487 19.7923 46.7439 20.2453C46.6971 20.4147 46.6705 20.589 46.6646 20.7646V22.0458C46.6646 22.6035 46.8359 23.0748 47.1785 23.4606C47.5211 23.8447 47.9661 24.0375 48.5136 24.0375C49.1564 24.0375 49.6567 23.7886 50.0145 23.2949C50.373 22.7996 50.5523 22.1466 50.5523 21.3352ZM61.1252 21.2727C61.1252 22.5787 60.7707 23.611 60.0607 24.3688C59.4243 25.0434 58.6351 25.3803 57.6922 25.3803C56.6749 25.3803 55.9433 25.0178 55.499 24.2912V28.3203H53.7925V20.0516C53.7925 19.2314 53.7709 18.3904 53.7293 17.5277H55.2301L55.3253 18.7449H55.3573C55.9256 17.8278 56.7893 17.3693 57.9491 17.3693C58.8544 17.3693 59.6108 17.727 60.2176 18.4432C60.8211 19.161 61.1252 20.1036 61.1252 21.2727ZM59.3859 21.3352C59.3859 20.5878 59.217 19.9716 58.8792 19.4859C58.5102 18.9809 58.0164 18.728 57.3952 18.728C56.9742 18.728 56.5916 18.8689 56.2482 19.1466C55.9056 19.4266 55.6823 19.7923 55.5775 20.2453C55.5254 20.4565 55.4974 20.6286 55.4974 20.7646V22.0458C55.4974 22.6035 55.6695 23.0748 56.0105 23.4606C56.3531 23.8439 56.7981 24.0375 57.3472 24.0375C57.9908 24.0375 58.491 23.7886 58.848 23.2949C59.2066 22.7996 59.3859 22.1466 59.3859 21.3352ZM71.0026 22.2194C71.0026 23.1261 70.6856 23.8631 70.0557 24.432C69.3625 25.053 68.3948 25.3643 67.1541 25.3643C66.0079 25.3643 65.089 25.1434 64.3958 24.7009L64.7904 23.2789C65.5388 23.7222 66.3609 23.9431 67.2558 23.9431C67.8993 23.9431 68.3996 23.7974 68.7566 23.5086C69.1144 23.2189 69.2953 22.8316 69.2953 22.3482C69.2953 21.9153 69.1456 21.5528 68.8518 21.2575C68.5565 20.9631 68.0682 20.6886 67.3822 20.4365C65.5172 19.7411 64.5839 18.724 64.5839 17.3861C64.5839 16.5122 64.9137 15.7968 65.5716 15.2375C66.2296 14.6789 67.1021 14.3997 68.1875 14.3997C69.1568 14.3997 69.9644 14.5685 70.6056 14.9054L70.1773 16.2962C69.5738 15.9697 68.8926 15.8064 68.1306 15.8064C67.5287 15.8064 67.0565 15.9545 66.7187 16.249C66.4345 16.5122 66.2904 16.8331 66.2904 17.214C66.2904 17.6341 66.4545 17.983 66.7811 18.2567C67.0645 18.5088 67.5815 18.7833 68.3291 19.0777C69.2464 19.4474 69.9204 19.878 70.3518 20.3725C70.7865 20.867 71.0026 21.484 71.0026 22.2194ZM76.6592 18.8081H74.7782V22.5363C74.7782 23.4846 75.1096 23.9575 75.774 23.9575C76.0789 23.9575 76.3319 23.9319 76.532 23.8783L76.5792 25.1738C76.243 25.2995 75.8004 25.3627 75.2521 25.3627C74.5781 25.3627 74.0514 25.157 73.6712 24.7457C73.2926 24.3344 73.1021 23.6454 73.1021 22.6755V18.8049H71.9815V17.5245H73.1021V16.1185L74.7782 15.6128V17.5245H76.6592V18.8081ZM85.1294 21.304C85.1294 22.4843 84.7916 23.4534 84.1177 24.2112C83.4125 24.9914 82.4744 25.3803 81.3049 25.3803C80.1763 25.3803 79.279 25.0066 78.6099 24.26C77.9407 23.5118 77.6061 22.5691 77.6061 21.432C77.6061 20.2421 77.9519 19.2674 78.6411 18.5096C79.3319 17.751 80.262 17.3717 81.4314 17.3717C82.5584 17.3717 83.4637 17.7462 84.1489 18.4936C84.8036 19.2186 85.1294 20.1548 85.1294 21.304ZM83.3605 21.3432C83.3605 20.6398 83.2084 20.0364 82.9034 19.5315C82.5456 18.9217 82.0333 18.6168 81.3698 18.6168C80.6862 18.6168 80.1619 18.9217 79.8049 19.5315C79.4992 20.0364 79.3471 20.6502 79.3471 21.3752C79.3471 22.0794 79.4992 22.6843 79.8049 23.1877C80.1739 23.7974 80.6886 24.1023 81.3554 24.1023C82.0077 24.1023 82.5192 23.791 82.889 23.1725C83.2028 22.6555 83.3605 22.0482 83.3605 21.3432ZM90.6788 19.0281C90.5013 18.9961 90.3213 18.9803 90.1409 18.9809C89.5406 18.9809 89.0763 19.2066 88.7498 19.6611C88.4664 20.0612 88.3239 20.567 88.3239 21.1775V25.2066H86.6174V19.946C86.6189 19.1399 86.6024 18.3339 86.5678 17.5285H88.0542L88.1166 18.9977H88.1639C88.3447 18.4928 88.6281 18.0855 89.0171 17.7806C89.3732 17.5142 89.8058 17.3699 90.2506 17.3693C90.4083 17.3693 90.5507 17.3805 90.6772 17.4005L90.6788 19.0281ZM98.3109 21.0039C98.3153 21.2632 98.2943 21.5224 98.2485 21.7777H93.1289C93.1481 22.5363 93.3963 23.1173 93.8717 23.5174C94.3032 23.8743 94.8611 24.0535 95.5462 24.0535C96.3042 24.0535 96.9958 23.9335 97.6178 23.691L97.8851 24.8745C97.1583 25.1914 96.3002 25.3491 95.3101 25.3491C94.1191 25.3491 93.1842 24.9986 92.5038 24.2992C91.825 23.599 91.4848 22.6579 91.4848 21.4792C91.4848 20.3221 91.801 19.3578 92.4342 18.5888C93.0969 17.7678 93.9926 17.3573 95.1196 17.3573C96.2266 17.3573 97.0647 17.7678 97.6338 18.5888C98.0844 19.2394 98.3109 20.046 98.3109 21.0039ZM96.6836 20.5614C96.6957 20.0548 96.5836 19.6187 96.3523 19.2498C96.0569 18.7745 95.6023 18.5376 94.9931 18.5376C94.4352 18.5376 93.9806 18.7689 93.6348 19.233C93.3507 19.6019 93.1818 20.0452 93.1297 20.5598L96.6836 20.5614Z" fill="white"/>
<path d="M36.7205 10.7931C36.2458 10.7931 35.8352 10.7699 35.4934 10.7307V5.5821C35.9714 5.50828 36.4545 5.47189 36.9382 5.47327C38.8952 5.47327 39.7965 6.43594 39.7965 8.00517C39.7965 9.81527 38.732 10.7931 36.7205 10.7931ZM37.007 6.13346C36.7429 6.13346 36.518 6.14946 36.3315 6.18787V10.1017C36.4323 10.1178 36.626 10.125 36.8982 10.125C38.1805 10.125 38.9105 9.39515 38.9105 8.02838C38.9105 6.80964 38.2501 6.13346 37.007 6.13346ZM42.6052 10.8323C41.5023 10.8323 40.7875 10.0089 40.7875 8.89102C40.7875 7.7259 41.5175 6.89527 42.6677 6.89527C43.7547 6.89527 44.4855 7.67948 44.4855 8.8294C44.4855 10.0089 43.7323 10.8323 42.6052 10.8323ZM42.6373 7.50823C42.0313 7.50823 41.6431 8.07479 41.6431 8.86701C41.6431 9.64402 42.0393 10.2106 42.6293 10.2106C43.2192 10.2106 43.6154 9.60481 43.6154 8.851C43.6154 8.08279 43.2272 7.50823 42.6373 7.50823ZM50.7753 6.97289L49.5946 10.7467H48.8254L48.3363 9.10788C48.2147 8.707 48.1135 8.30024 48.033 7.88914H48.017C47.9553 8.30045 47.8385 8.71257 47.7144 9.10788L47.1941 10.7467H46.4169L45.3059 6.97289H46.168L46.5954 8.76698C46.6963 9.1943 46.7811 9.59761 46.8515 9.97851H46.8675C46.9292 9.66083 47.03 9.26392 47.1781 8.77498L47.7144 6.97369H48.398L48.9111 8.73657C49.0351 9.16389 49.136 9.58321 49.2144 9.97932H49.2368C49.2913 9.59121 49.3769 9.17909 49.493 8.73657L49.9516 6.97369L50.7753 6.97289ZM55.1216 10.7467H54.2827V8.57973C54.2827 7.91235 54.0266 7.57785 53.5215 7.57785C53.0245 7.57785 52.6827 8.00517 52.6827 8.50211V10.7467H51.8438V8.05158C51.8438 7.71789 51.8358 7.36019 51.8126 6.97209H52.5506L52.5898 7.55465H52.613C52.8388 7.15134 53.2966 6.89527 53.8097 6.89527C54.6021 6.89527 55.1224 7.50103 55.1224 8.4869L55.1216 10.7467ZM57.4348 10.7467H56.5952V5.24121H57.4348V10.7467ZM60.4933 10.8323C59.3911 10.8323 58.6755 10.0089 58.6755 8.89102C58.6755 7.7259 59.4055 6.89527 60.5549 6.89527C61.6427 6.89527 62.3727 7.67948 62.3727 8.8294C62.3735 10.0089 61.6195 10.8323 60.4933 10.8323ZM60.5245 7.50823C59.9186 7.50823 59.5304 8.07479 59.5304 8.86701C59.5304 9.64402 59.9274 10.2106 60.5157 10.2106C61.1064 10.2106 61.5018 9.60481 61.5018 8.851C61.5026 8.08279 61.1152 7.50823 60.5245 7.50823ZM65.6801 10.7467L65.6193 10.3122H65.5969C65.3407 10.6619 64.9669 10.8323 64.4931 10.8323C63.8167 10.8323 63.3364 10.3586 63.3364 9.72164C63.3364 8.79019 64.1441 8.30845 65.5424 8.30845V8.23884C65.5424 7.7419 65.2791 7.49303 64.7588 7.49303C64.3866 7.49303 64.06 7.58666 63.7727 7.77311L63.6022 7.22176C63.9512 7.0041 64.3866 6.89527 64.8981 6.89527C65.8842 6.89527 66.3821 7.41541 66.3821 8.4565V9.84648C66.3821 10.2274 66.3989 10.5227 66.4365 10.7475L65.6801 10.7467ZM65.5648 8.86701C64.6331 8.86701 64.1657 9.09267 64.1657 9.62802C64.1657 10.0241 64.4066 10.2178 64.7412 10.2178C65.1678 10.2178 65.5648 9.89209 65.5648 9.44957V8.86701ZM70.4555 10.7467L70.4163 10.141H70.393C70.1521 10.5987 69.7471 10.8323 69.1812 10.8323C68.2711 10.8323 67.5971 10.0321 67.5971 8.90622C67.5971 7.7259 68.2959 6.89447 69.25 6.89447C69.7551 6.89447 70.1129 7.06491 70.3146 7.40741H70.3314V5.24121H71.1711V9.72965C71.1711 10.0945 71.1799 10.4362 71.2023 10.7467H70.4555ZM70.3314 8.52612C70.3314 7.99797 69.9816 7.54745 69.4477 7.54745C68.8258 7.54745 68.4456 8.0988 68.4456 8.87501C68.4456 9.63602 68.8402 10.157 69.4309 10.157C69.9584 10.157 70.3314 9.69844 70.3314 9.15509V8.52612ZM76.4947 10.8323C75.3925 10.8323 74.6778 10.0089 74.6778 8.89102C74.6778 7.7259 75.4078 6.89527 76.5572 6.89527C77.645 6.89527 78.375 7.67948 78.375 8.8294C78.3758 10.0089 77.6225 10.8323 76.4947 10.8323ZM76.526 7.50823C75.9208 7.50823 75.5326 8.07479 75.5326 8.86701C75.5326 9.64402 75.9288 10.2106 76.5179 10.2106C77.1087 10.2106 77.5041 9.60481 77.5041 8.851C77.5057 8.08279 77.1175 7.50823 76.526 7.50823ZM82.8862 10.7467H82.0465V8.57973C82.0465 7.91235 81.7904 7.57785 81.2853 7.57785C80.7883 7.57785 80.4473 8.00517 80.4473 8.50211V10.7467H79.6076V8.05158C79.6076 7.71789 79.5996 7.36019 79.5764 6.97209H80.3144L80.3536 7.55465H80.3768C80.6018 7.15134 81.0604 6.89447 81.5727 6.89447C82.3651 6.89447 82.8862 7.50023 82.8862 8.4861V10.7467ZM88.53 7.60186H87.6071V9.43437C87.6071 9.90089 87.7688 10.1338 88.0954 10.1338C88.2435 10.1338 88.3675 10.1178 88.4676 10.0945L88.4908 10.7315C88.3283 10.7939 88.1106 10.8251 87.8401 10.8251C87.1789 10.8251 86.7835 10.4602 86.7835 9.50478V7.60186H86.2328V6.97289H86.7835V6.2815L87.6071 6.03263V6.97209H88.53V7.60186ZM92.9708 10.7467H92.1328V8.59573C92.1328 7.92035 91.8774 7.57865 91.3716 7.57865C90.9369 7.57865 90.5319 7.87394 90.5319 8.4717V10.7467H89.6939V5.24121H90.5319V7.50823H90.5487C90.8129 7.09692 91.1955 6.89447 91.6837 6.89447C92.4826 6.89447 92.9708 7.51544 92.9708 8.50211V10.7467ZM97.5205 9.06146H95.0031C95.0191 9.77606 95.4922 10.1794 96.1926 10.1794C96.5648 10.1794 96.9074 10.117 97.2099 10.0009L97.3404 10.5835C96.9834 10.7387 96.5632 10.8163 96.0741 10.8163C94.8935 10.8163 94.1947 10.0705 94.1947 8.91422C94.1947 7.7571 94.9103 6.88726 95.9797 6.88726C96.9442 6.88726 97.5493 7.60186 97.5493 8.68136C97.5547 8.80875 97.5451 8.93634 97.5205 9.06146ZM96.7513 8.4637C96.7513 7.88114 96.4575 7.46982 95.9212 7.46982C95.4394 7.46982 95.0584 7.88914 95.0039 8.4637H96.7513Z" fill="white"/>
<path fill-rule="evenodd" clip-rule="evenodd" d="M221.432 32H120.568C118.343 32 116.531 30.1965 116.531 28V4C116.531 1.79551 118.343 0 120.568 0H221.432C223.654 0 225.468 1.79551 225.468 4V28C225.468 30.1965 223.654 32 221.432 32Z" fill="#141520"/>
<path fill-rule="evenodd" clip-rule="evenodd" d="M221.432 0.640399C223.297 0.640399 224.824 2.15062 224.824 4V28C224.824 29.8494 223.307 31.3596 221.432 31.3596H120.568C118.702 31.3596 117.175 29.8494 117.175 28V4C117.175 2.15062 118.692 0.640399 120.568 0.640399H221.432ZM221.432 0H120.568C118.343 0 116.531 1.80349 116.531 4V28C116.531 30.2045 118.343 32 120.568 32H221.432C223.654 32 225.468 30.2045 225.468 28V4C225.468 1.80349 223.654 0 221.432 0Z" fill="#141520"/>
<path d="M173.919 10.5827C173.192 10.5827 172.578 10.3294 172.093 9.83062C171.612 9.34583 171.344 8.6775 171.356 7.9952C171.356 7.26702 171.604 6.65057 172.093 6.16179C172.576 5.66303 173.19 5.40967 173.917 5.40967C174.637 5.40967 175.25 5.66303 175.743 6.16179C176.232 6.66653 176.48 7.28298 176.48 7.9952C176.472 8.72538 176.224 9.34184 175.743 9.82862C175.26 10.3314 174.647 10.5827 173.919 10.5827ZM152.274 10.5827C151.562 10.5827 150.945 10.3334 150.44 9.84059C149.939 9.34982 149.684 8.72937 149.684 7.9972C149.684 7.26503 149.939 6.64458 150.44 6.15381C150.935 5.66104 151.552 5.41166 152.274 5.41166C152.626 5.41166 152.969 5.48149 153.298 5.62313C153.62 5.76079 153.883 5.94832 154.077 6.17775L154.125 6.2356L153.582 6.76628L153.526 6.70044C153.219 6.33735 152.809 6.15979 152.266 6.15979C151.781 6.15979 151.358 6.33136 151.009 6.67052C150.658 7.01166 150.48 7.45855 150.48 7.99919C150.48 8.53984 150.658 8.98673 151.009 9.32787C151.358 9.66702 151.781 9.8386 152.266 9.8386C152.783 9.8386 153.217 9.66702 153.556 9.32787C153.757 9.12837 153.881 8.84907 153.925 8.49595H152.183V7.74982H154.672L154.682 7.81765C154.7 7.94333 154.718 8.07301 154.718 8.19271C154.718 8.88099 154.51 9.4376 154.097 9.84857C153.628 10.3354 153.015 10.5827 152.274 10.5827ZM181.053 10.477H180.286L177.935 6.73236L177.955 7.40668V10.475H177.188V5.5174H178.063L178.087 5.5553L180.298 9.08249L180.278 8.41017V5.5174H181.053V10.477ZM168.151 10.477H167.374V6.26353H166.025V5.5174H169.498V6.26353H168.149V10.477H168.151ZM165.392 10.477H164.616V5.5174H165.392V10.477ZM161.033 10.477H160.258V6.26353H158.909V5.5174H162.382V6.26353H161.033V10.477ZM158.418 10.469H155.444V5.5174H158.418V6.26353H156.221V7.62413H158.203V8.36229H156.221V9.72289H158.418V10.469ZM172.663 9.3179C173.009 9.66303 173.43 9.8366 173.919 9.8366C174.422 9.8366 174.833 9.66702 175.176 9.3179C175.516 8.97875 175.689 8.53386 175.689 7.9972C175.689 7.46054 175.516 7.01366 175.178 6.6765C174.831 6.33136 174.408 6.1578 173.921 6.1578C173.418 6.1578 173.007 6.32737 172.667 6.6765C172.326 7.01565 172.154 7.46054 172.154 7.9972C172.154 8.53386 172.324 8.98074 172.663 9.3179Z" fill="white"/>
<path fill-rule="evenodd" clip-rule="evenodd" d="M171.284 17.4009C169.39 17.4009 167.855 18.8313 167.855 20.8044C167.855 22.7595 169.4 24.2079 171.284 24.2079C173.178 24.2079 174.713 22.7675 174.713 20.8044C174.713 18.8313 173.178 17.4009 171.284 17.4009ZM171.284 22.8592C170.248 22.8592 169.356 22.0054 169.356 20.7964C169.356 19.5694 170.25 18.7335 171.284 18.7335C172.32 18.7335 173.212 19.5694 173.212 20.7964C173.214 22.0133 172.32 22.8592 171.284 22.8592ZM163.803 17.4009C161.909 17.4009 160.374 18.8313 160.374 20.8044C160.374 22.7595 161.919 24.2079 163.803 24.2079C165.697 24.2079 167.232 22.7675 167.232 20.8044C167.232 18.8313 165.695 17.4009 163.803 17.4009ZM163.803 22.8592C162.767 22.8592 161.875 22.0054 161.875 20.7964C161.875 19.5694 162.769 18.7335 163.803 18.7335C164.839 18.7335 165.731 19.5694 165.731 20.7964C165.731 22.0133 164.839 22.8592 163.803 22.8592ZM154.901 18.4403V19.8807H158.374C158.268 20.6887 157.999 21.2852 157.589 21.6941C157.079 22.2009 156.294 22.7515 154.909 22.7515C152.775 22.7515 151.105 21.0358 151.105 18.9111C151.105 16.7864 152.775 15.0707 154.909 15.0707C156.061 15.0707 156.901 15.5236 157.524 16.1021L158.55 15.0807C157.685 14.2547 156.532 13.6223 154.917 13.6223C151.989 13.6223 149.532 15.9964 149.532 18.9031C149.532 21.8178 151.987 24.1839 154.917 24.1839C156.498 24.1839 157.685 23.6692 158.623 22.6996C159.579 21.748 159.881 20.4054 159.881 19.3221C159.881 18.9849 159.855 18.6817 159.801 18.4243H154.899C154.901 18.4223 154.901 18.4403 154.901 18.4403ZM191.313 19.5615C191.026 18.7974 190.16 17.3929 188.385 17.3929C186.625 17.3929 185.162 18.7714 185.162 20.7964C185.162 22.7076 186.609 24.1999 188.555 24.1999C190.118 24.1999 191.028 23.2483 191.403 22.6896L190.243 21.9156C189.858 22.4842 189.323 22.8572 188.563 22.8572C187.796 22.8572 187.259 22.5101 186.902 21.8258L191.473 19.9405C191.473 19.9425 191.313 19.5615 191.313 19.5615ZM186.651 20.6986C186.615 19.3839 187.677 18.7156 188.437 18.7156C189.036 18.7156 189.535 19.0088 189.705 19.4358L186.651 20.6986ZM182.938 23.9964H184.439V13.9974H182.938V23.9964ZM180.473 18.157H180.419C180.08 17.756 179.437 17.3929 178.615 17.3929C176.91 17.3929 175.338 18.8872 175.338 20.8064C175.338 22.7176 176.902 24.1939 178.615 24.1939C179.427 24.1939 180.08 23.8288 180.419 23.4198H180.473V23.9086C180.473 25.2074 179.775 25.9076 178.651 25.9076C177.731 25.9076 177.16 25.2492 176.928 24.6986L175.623 25.2413C175.998 26.139 176.998 27.2502 178.649 27.2502C180.409 27.2502 181.9 26.2188 181.9 23.7031V17.5964H180.481V18.157C180.483 18.157 180.473 18.157 180.473 18.157ZM178.749 22.8592C177.713 22.8592 176.847 21.9974 176.847 20.8064C176.847 19.6054 177.713 18.7355 178.749 18.7355C179.775 18.7355 180.571 19.6153 180.571 20.8064C180.581 21.9974 179.777 22.8592 178.749 22.8592ZM198.341 13.9974H194.752V23.9964H196.253V20.2098H198.343C200.004 20.2098 201.638 19.0108 201.638 17.1076C201.638 15.2044 200.01 13.9974 198.341 13.9974ZM198.385 18.8133H196.251V15.3819H198.385C199.509 15.3819 200.145 16.3056 200.145 17.0976C200.145 17.8817 199.501 18.8133 198.385 18.8133ZM207.654 17.3829C206.564 17.3829 205.439 17.8637 204.974 18.9111L206.305 19.4617C206.592 18.9111 207.117 18.7236 207.672 18.7236C208.449 18.7236 209.235 19.1864 209.253 20.0123V20.1181C208.985 19.9665 208.395 19.735 207.69 19.735C206.253 19.735 204.796 20.5171 204.796 21.9834C204.796 23.3261 205.974 24.1879 207.287 24.1879C208.295 24.1879 208.85 23.735 209.197 23.2103H209.251V23.9844H210.698V20.154C210.698 18.3704 209.367 17.3829 207.654 17.3829ZM207.465 22.8592C206.974 22.8592 206.287 22.6198 206.287 22.0054C206.287 21.2313 207.145 20.938 207.876 20.938C208.538 20.938 208.85 21.0797 209.243 21.2752C209.135 22.1729 208.373 22.8512 207.465 22.8592ZM215.977 17.5964L214.253 21.9335H214.199L212.413 17.5964H210.798L213.478 23.6592L211.95 27.0288H213.514L217.636 17.5964H215.977ZM202.465 23.9964H203.966V13.9974H202.465V23.9964Z" fill="white"/>
<path fill-rule="evenodd" clip-rule="evenodd" d="M124.917 6.02725C124.684 6.27663 124.55 6.65768 124.55 7.15643V24.8462C124.55 25.345 124.684 25.726 124.925 25.9654L124.987 26.0193L134.943 16.1081V15.8866L124.979 5.97339L124.917 6.02725Z" fill="url(#paint0_linear_1_5374)"/>
<path fill-rule="evenodd" clip-rule="evenodd" d="M138.255 19.4227L134.934 16.117V15.8856L138.255 12.5798L138.327 12.6237L142.255 14.8462C143.379 15.4766 143.379 16.518 142.255 17.1564L138.327 19.3788L138.255 19.4227Z" fill="url(#paint1_linear_1_5374)"/>
<path fill-rule="evenodd" clip-rule="evenodd" d="M138.328 19.3776L134.935 16L124.917 25.9731C125.283 26.3641 125.898 26.408 126.586 26.0269L138.328 19.3776Z" fill="url(#paint2_linear_1_5374)"/>
<path fill-rule="evenodd" clip-rule="evenodd" d="M138.328 12.6251L126.586 5.98574C125.898 5.59472 125.281 5.64858 124.917 6.0396L134.935 16.0027L138.328 12.6251Z" fill="url(#paint3_linear_1_5374)"/>
<path opacity="0.2" fill-rule="evenodd" clip-rule="evenodd" d="M138.256 19.3032L126.594 25.8987C125.943 26.2718 125.361 26.2458 124.987 25.9067L124.925 25.9685L124.987 26.0224C125.361 26.3595 125.943 26.3875 126.594 26.0144L138.336 19.375L138.256 19.3032Z" fill="black"/>
<path opacity="0.12" fill-rule="evenodd" clip-rule="evenodd" d="M142.256 17.0394L138.246 19.3057L138.318 19.3776L142.246 17.1551C142.809 16.8359 143.085 16.417 143.085 16C143.051 16.383 142.765 16.7461 142.256 17.0394Z" fill="black"/>
<path opacity="0.25" fill-rule="evenodd" clip-rule="evenodd" d="M126.586 6.09956L142.256 14.9614C142.765 15.2467 143.051 15.6198 143.096 16.0008C143.096 15.5839 142.819 15.1649 142.256 14.8457L126.586 5.98385C125.462 5.34345 124.55 5.87812 124.55 7.15692V7.27263C124.55 5.99183 125.462 5.46714 126.586 6.09956Z" fill="white"/>
<defs>
<linearGradient id="paint0_linear_1_5374" x1="134.05" y1="6.96558" x2="118.112" y2="11.2316" gradientUnits="userSpaceOnUse">
<stop stop-color="#00A0FF"/>
<stop offset="0.00657" stop-color="#00A1FF"/>
<stop offset="0.2601" stop-color="#00BEFF"/>
<stop offset="0.5122" stop-color="#00D2FF"/>
<stop offset="0.7604" stop-color="#00DFFF"/>
<stop offset="1" stop-color="#00E3FF"/>
</linearGradient>
<linearGradient id="paint1_linear_1_5374" x1="143.721" y1="16.0013" x2="124.276" y2="16.0013" gradientUnits="userSpaceOnUse">
<stop stop-color="#FFE000"/>
<stop offset="0.4087" stop-color="#FFBD00"/>
<stop offset="0.7754" stop-color="#FFA500"/>
<stop offset="1" stop-color="#FF9C00"/>
</linearGradient>
<linearGradient id="paint2_linear_1_5374" x1="136.483" y1="17.8379" x2="123.765" y2="39.3396" gradientUnits="userSpaceOnUse">
<stop stop-color="#FF3A44"/>
<stop offset="1" stop-color="#C31162"/>
</linearGradient>
<linearGradient id="paint3_linear_1_5374" x1="122.394" y1="0.145728" x2="128.068" y2="9.74871" gradientUnits="userSpaceOnUse">
<stop stop-color="#32A071"/>
<stop offset="0.0685" stop-color="#2DA771"/>
<stop offset="0.4762" stop-color="#15CF74"/>
<stop offset="0.8009" stop-color="#06E775"/>
<stop offset="1" stop-color="#00F076"/>
</linearGradient>
</defs>
</svg>
