<svg width="58" height="10" viewBox="0 0 58 10" fill="none" xmlns="http://www.w3.org/2000/svg">
<rect width="10" height="10" fill="#23AD7A"/>
<path d="M9.091 3.85722L5.96567 3.85662L5.00009 0.910156L4.03451 3.85632L0.90918 3.85573L3.43773 5.67754L2.47214 8.6246L5.00039 6.80339L7.52803 8.6246L6.56245 5.67843L9.091 3.85722Z" fill="white"/>
<path d="M6.78099 6.34755L6.56206 5.67969L5 6.80464L6.78099 6.34755Z" fill="#23AD7A"/>
<rect width="10" height="10" transform="translate(12)" fill="#23AD7A"/>
<path d="M21.091 3.85722L17.9657 3.85662L17.0001 0.910156L16.0345 3.85632L12.9092 3.85573L15.4377 5.67754L14.4721 8.6246L17.0004 6.80339L19.528 8.6246L18.5625 5.67843L21.091 3.85722Z" fill="white"/>
<path d="M18.781 6.34755L18.5621 5.67969L17 6.80464L18.781 6.34755Z" fill="#23AD7A"/>
<rect width="10" height="10" transform="translate(24)" fill="#23AD7A"/>
<path d="M33.091 3.85722L29.9657 3.85662L29.0001 0.910156L28.0345 3.85632L24.9092 3.85573L27.4377 5.67754L26.4721 8.6246L29.0004 6.80339L31.528 8.6246L30.5625 5.67843L33.091 3.85722Z" fill="white"/>
<path d="M30.781 6.34755L30.5621 5.67969L29 6.80464L30.781 6.34755Z" fill="#23AD7A"/>
<rect width="10" height="10" transform="translate(36)" fill="#23AD7A"/>
<path d="M45.091 3.85722L41.9657 3.85662L41.0001 0.910156L40.0345 3.85632L36.9092 3.85573L39.4377 5.67754L38.4721 8.6246L41.0004 6.80339L43.528 8.6246L42.5625 5.67843L45.091 3.85722Z" fill="white"/>
<path d="M42.781 6.34755L42.5621 5.67969L41 6.80464L42.781 6.34755Z" fill="#23AD7A"/>
<g clip-path="url(#clip0_1_5336)">
<rect width="10" height="10" transform="translate(48)" fill="#C4C4C4"/>
<rect x="48" width="11" height="22" fill="#23AD7A"/>
<path d="M57.091 3.85722L53.9657 3.85662L53.0001 0.910156L52.0345 3.85632L48.9092 3.85573L51.4377 5.67754L50.4721 8.6246L53.0004 6.80339L55.528 8.6246L54.5625 5.67843L57.091 3.85722Z" fill="white"/>
<path d="M54.781 6.34755L54.5621 5.67969L53 6.80464L54.781 6.34755Z" fill="#C4C4C4"/>
</g>
<defs>
<clipPath id="clip0_1_5336">
<rect width="10" height="10" fill="white" transform="translate(48)"/>
</clipPath>
</defs>
</svg>
