<svg width="118" height="22" viewBox="0 0 118 22" fill="none" xmlns="http://www.w3.org/2000/svg">
<rect width="22" height="22" fill="#23AD7A"/>
<path d="M20 8.48354L13.1243 8.48223L11 2L8.87572 8.48157L2 8.48025L7.5628 12.4882L5.43852 18.9718L11.0007 14.9651L16.5615 18.9718L14.4372 12.4902L20 8.48354Z" fill="white"/>
<path d="M14.9187 13.9595L14.437 12.4902L11.0005 14.9651L14.9187 13.9595Z" fill="#23AD7A"/>
<rect width="22" height="22" transform="translate(24)" fill="#23AD7A"/>
<path d="M44 8.48354L37.1243 8.48223L35 2L32.8757 8.48157L26 8.48025L31.5628 12.4882L29.4385 18.9718L35.0007 14.9651L40.5615 18.9718L38.4372 12.4902L44 8.48354Z" fill="white"/>
<path d="M38.9187 13.9595L38.437 12.4902L35.0005 14.9651L38.9187 13.9595Z" fill="#23AD7A"/>
<rect width="22" height="22" transform="translate(48)" fill="#23AD7A"/>
<path d="M68 8.48354L61.1243 8.48223L59 2L56.8757 8.48157L50 8.48025L55.5628 12.4882L53.4385 18.9718L59.0007 14.9651L64.5615 18.9718L62.4372 12.4902L68 8.48354Z" fill="white"/>
<path d="M62.9187 13.9595L62.437 12.4902L59.0005 14.9651L62.9187 13.9595Z" fill="#23AD7A"/>
<rect width="22" height="22" transform="translate(72)" fill="#23AD7A"/>
<path d="M92 8.48354L85.1243 8.48223L83 2L80.8757 8.48157L74 8.48025L79.5628 12.4882L77.4385 18.9718L83.0007 14.9651L88.5615 18.9718L86.4372 12.4902L92 8.48354Z" fill="white"/>
<path d="M86.9187 13.9595L86.437 12.4902L83.0005 14.9651L86.9187 13.9595Z" fill="#23AD7A"/>
<rect width="22" height="22" transform="translate(96)" fill="#C4C4C4"/>
<rect x="96" width="11" height="22" fill="#23AD7A"/>
<path d="M116 8.48354L109.124 8.48223L107 2L104.876 8.48157L98 8.48025L103.563 12.4882L101.439 18.9718L107.001 14.9651L112.561 18.9718L110.437 12.4902L116 8.48354Z" fill="white"/>
<path d="M110.919 13.9595L110.437 12.4902L107 14.9651L110.919 13.9595Z" fill="#C4C4C4"/>
</svg>
