<svg width="99" height="24" viewBox="0 0 99 24" fill="none" xmlns="http://www.w3.org/2000/svg">
<g clip-path="url(#clip0_1_1724)">
<path d="M25.9077 8.50379H35.8909V10.3533H31.97V20.7298H29.8112V10.3533H25.9077V8.50379ZM35.4593 11.8767H37.3074V13.589H37.3423C37.3997 13.3492 37.5119 13.1154 37.679 12.8868C37.8461 12.6582 38.0471 12.4503 38.2837 12.2614C38.5196 12.0733 38.7815 11.9215 39.0695 11.8077C39.3575 11.6938 39.6507 11.6369 39.9501 11.6369C40.1807 11.6369 40.339 11.6429 40.4252 11.6541C40.5113 11.6653 40.6009 11.6774 40.6932 11.6886V13.5717C40.5548 13.5493 40.4139 13.5286 40.2703 13.5113C40.1258 13.4941 39.9849 13.4855 39.8474 13.4855C39.5133 13.4855 39.2 13.551 38.9059 13.6821C38.6127 13.8133 38.356 14.0074 38.1376 14.2644C37.9183 14.5215 37.746 14.8381 37.619 15.215C37.4919 15.592 37.4293 16.0259 37.4293 16.5167V20.7289H35.4601V11.8767H35.4593ZM49.7287 20.7289H47.7944V19.4962H47.7596C47.5177 19.9414 47.1575 20.2985 46.6798 20.5668C46.202 20.835 45.7156 20.9696 45.2205 20.9696C44.0458 20.9696 43.1966 20.6815 42.6727 20.1053C42.1489 19.529 41.887 18.6586 41.887 17.4941V11.8775H43.8561V17.3052C43.8561 18.0815 44.0058 18.6293 44.3051 18.9493C44.6045 19.2694 45.0247 19.429 45.566 19.429C45.9802 19.429 46.3256 19.366 46.6023 19.2409C46.879 19.1158 47.1035 18.9468 47.2758 18.7354C47.449 18.5241 47.5725 18.2705 47.6473 17.9737C47.7222 17.677 47.7596 17.3569 47.7596 17.0145V11.8775H49.7287V20.7298V20.7289ZM53.0796 17.8866C53.1371 18.4576 53.3563 18.857 53.7357 19.0856C54.116 19.3142 54.5702 19.4281 55.1001 19.4281C55.2846 19.4281 55.4943 19.4143 55.731 19.385C55.9668 19.3565 56.1887 19.3022 56.3958 19.2219C56.6028 19.1426 56.7725 19.0252 56.9057 18.8708C57.0379 18.7164 57.098 18.5146 57.0866 18.2627C57.0753 18.0117 56.9831 17.8064 56.8099 17.6459C56.6368 17.4863 56.4149 17.3578 56.1452 17.2603C55.8745 17.1637 55.5665 17.0809 55.2211 17.0119C54.8756 16.9437 54.5241 16.8695 54.1673 16.7893C53.7984 16.71 53.4442 16.6125 53.1049 16.4978C52.7655 16.3839 52.4601 16.2295 52.1895 16.0354C51.9189 15.8413 51.7031 15.5929 51.5421 15.2909C51.3811 14.989 51.3002 14.6146 51.3002 14.1695C51.3002 13.6899 51.4185 13.2879 51.6544 12.9627C51.8902 12.6375 52.1895 12.3753 52.5523 12.1751C52.9152 11.9759 53.3181 11.8353 53.761 11.7559C54.2039 11.6765 54.6276 11.636 55.0305 11.636C55.4908 11.636 55.9311 11.6843 56.3522 11.7818C56.7725 11.8793 57.1528 12.0362 57.4921 12.2528C57.8315 12.4701 58.1143 12.7522 58.3388 13.1007C58.5633 13.4492 58.7042 13.8685 58.7617 14.3593H56.7064C56.6142 13.8918 56.3984 13.5778 56.059 13.4173C55.7188 13.2577 55.3307 13.1775 54.893 13.1775C54.7547 13.1775 54.5911 13.1887 54.4005 13.212C54.2108 13.2353 54.0316 13.2776 53.8654 13.3405C53.6983 13.4035 53.5574 13.495 53.4425 13.6149C53.3276 13.7348 53.2693 13.8918 53.2693 14.0858C53.2693 14.3257 53.3529 14.5198 53.5199 14.6681C53.687 14.8165 53.9054 14.939 54.176 15.0365C54.4466 15.1339 54.7547 15.2159 55.1001 15.2849C55.4456 15.353 55.8023 15.4281 56.1713 15.5075C56.528 15.5877 56.8796 15.6843 57.225 15.7982C57.5704 15.912 57.8785 16.0664 58.1491 16.2605C58.4197 16.4546 58.6381 16.7005 58.8052 16.9972C58.9722 17.294 59.0558 17.6597 59.0558 18.0928C59.0558 18.6181 58.9348 19.0632 58.6929 19.4281C58.451 19.7938 58.1369 20.0906 57.7514 20.3183C57.366 20.5469 56.937 20.7125 56.4645 20.8152C55.992 20.9179 55.5256 20.9696 55.0653 20.9696C54.5006 20.9696 53.9802 20.9066 53.5025 20.7816C53.0248 20.6556 52.6098 20.465 52.2591 20.2079C51.9076 19.9508 51.6317 19.6317 51.4299 19.2487C51.228 18.8665 51.1218 18.4128 51.1105 17.8874H53.0796V17.8866ZM59.5735 11.8767H61.0588V9.22236H63.028V11.8767H64.8074V13.3319H63.028V18.0582C63.028 18.2635 63.0367 18.4413 63.0541 18.5888C63.0715 18.7371 63.1115 18.8631 63.175 18.9657C63.2386 19.0684 63.3334 19.1452 63.4604 19.1969C63.5866 19.2487 63.7598 19.2737 63.9782 19.2737C64.1165 19.2737 64.2549 19.2711 64.3924 19.2651C64.5307 19.259 64.6691 19.2392 64.8066 19.2055V20.7125C64.5873 20.735 64.375 20.7583 64.1679 20.7807C63.9608 20.8031 63.7476 20.8152 63.5292 20.8152C63.0106 20.8152 62.5938 20.7669 62.2771 20.6694C61.9603 20.5728 61.7123 20.4296 61.5339 20.2416C61.3556 20.0535 61.2346 19.8163 61.1711 19.5307C61.1076 19.2452 61.0702 18.92 61.0588 18.5551V13.3328H59.5735V11.8775V11.8767ZM66.1883 11.8767H68.0539V13.0749H68.0887C68.3654 12.5616 68.7509 12.1932 69.246 11.9707C69.7411 11.7481 70.2763 11.6369 70.8523 11.6369C71.5545 11.6369 72.168 11.7593 72.6918 12.0052C73.2156 12.251 73.6507 12.5875 73.9961 13.0153C74.3416 13.4432 74.6009 13.9427 74.7732 14.5137C74.9454 15.0848 75.0325 15.6955 75.0325 16.3459C75.0325 16.9394 74.955 17.5165 74.7993 18.0755C74.6435 18.6353 74.4077 19.1288 74.091 19.5566C73.7742 19.9845 73.374 20.327 72.8902 20.584C72.4064 20.8411 71.8364 20.9696 71.1803 20.9696C70.8923 20.9696 70.6043 20.9437 70.3172 20.8928C70.0291 20.8411 69.7524 20.7583 69.4879 20.6444C69.2225 20.5305 68.978 20.3847 68.7535 20.2079C68.529 20.0311 68.3419 19.8223 68.1923 19.5825H68.1575V24H66.1883V11.8767ZM73.0625 16.3114C73.0625 15.912 73.0103 15.5238 72.9067 15.1469C72.8032 14.7699 72.6474 14.4361 72.4403 14.1454C72.2332 13.8547 71.9739 13.6209 71.6633 13.4432C71.3526 13.2664 70.995 13.1775 70.5921 13.1775C69.7629 13.1775 69.1381 13.463 68.7178 14.0332C68.2976 14.6043 68.087 15.3634 68.087 16.3106C68.087 16.7557 68.1418 17.1697 68.2514 17.5519C68.3611 17.934 68.5247 18.2627 68.7439 18.5361C68.9624 18.8105 69.2243 19.027 69.5297 19.1866C69.8342 19.347 70.1884 19.4264 70.5921 19.4264C71.0411 19.4264 71.4214 19.3349 71.732 19.1521C72.0427 18.9692 72.2993 18.7328 72.5003 18.4413C72.7014 18.1497 72.8458 17.8193 72.9319 17.4484C73.0181 17.0774 73.0616 16.6979 73.0616 16.3097L73.0625 16.3114ZM76.5343 8.50293H78.5035V10.3524H76.5343V8.50293ZM76.5343 11.8758H78.5035V20.7281H76.5343V11.8758ZM80.2629 8.50293H82.232V20.7298H80.2629V8.50379V8.50293ZM88.2595 20.9687C87.5451 20.9687 86.909 20.8514 86.3513 20.6177C85.7926 20.3839 85.321 20.0613 84.9347 19.6507C84.5483 19.24 84.2551 18.7492 84.0541 18.1782C83.8522 17.6071 83.7522 16.9791 83.7522 16.295C83.7522 15.611 83.8531 14.9994 84.0541 14.4283C84.2551 13.8573 84.5492 13.3664 84.9347 12.9558C85.3201 12.5452 85.7926 12.2226 86.3513 11.9888C86.9099 11.755 87.546 11.6377 88.2595 11.6377C88.973 11.6377 89.6091 11.755 90.1677 11.9888C90.7263 12.2226 91.198 12.5452 91.5843 12.9558C91.9698 13.3664 92.2639 13.8581 92.4649 14.4283C92.6659 14.9994 92.7668 15.6213 92.7668 16.295C92.7668 16.9687 92.6659 17.608 92.4649 18.1782C92.263 18.7492 91.9698 19.24 91.5843 19.6507C91.198 20.0613 90.7263 20.3839 90.1677 20.6177C89.6091 20.8514 88.973 20.9687 88.2595 20.9687ZM88.2595 19.4272C88.6972 19.4272 89.0774 19.3358 89.3994 19.1529C89.7213 18.97 89.9867 18.7311 90.1938 18.4335C90.4009 18.1367 90.5532 17.8029 90.6515 17.432C90.749 17.061 90.7986 16.6815 90.7986 16.2933C90.7986 15.9051 90.7498 15.5402 90.6515 15.1633C90.5541 14.7863 90.4009 14.4525 90.1938 14.1618C89.9867 13.8711 89.7213 13.6338 89.3994 13.451C89.0766 13.2681 88.6972 13.1766 88.2595 13.1766C87.8218 13.1766 87.4416 13.2681 87.1196 13.451C86.7968 13.6338 86.5323 13.8702 86.3252 14.1618C86.1181 14.4533 85.9649 14.7872 85.8675 15.1633C85.7691 15.5402 85.7204 15.9163 85.7204 16.2933C85.7204 16.6703 85.7691 17.061 85.8675 17.432C85.9649 17.8029 86.1181 18.1367 86.3252 18.4335C86.5323 18.7302 86.7968 18.97 87.1196 19.1529C87.4416 19.3358 87.8218 19.4272 88.2595 19.4272ZM93.3376 11.8758H94.823V9.2215H96.7921V11.8758H98.5715V13.3311H96.7921V18.0574C96.7921 18.2627 96.8008 18.4404 96.8182 18.5879C96.8356 18.7363 96.8756 18.8622 96.9392 18.9649C97.0027 19.0675 97.0975 19.1443 97.2246 19.196C97.3507 19.2478 97.5239 19.2728 97.7423 19.2728C97.8807 19.2728 98.019 19.2702 98.1565 19.2642C98.2948 19.2582 98.4332 19.2383 98.5707 19.2047V20.7117C98.3514 20.7341 98.1391 20.7574 97.932 20.7798C97.7249 20.8023 97.5117 20.8143 97.2933 20.8143C96.7747 20.8143 96.3579 20.766 96.0412 20.6686C95.7244 20.5719 95.4764 20.4287 95.2981 20.2407C95.1197 20.0526 94.9987 19.8154 94.9352 19.5299C94.8717 19.2444 94.8343 18.9191 94.823 18.5543V13.3319H93.3376V11.8767V11.8758Z" fill="#2C3038"/>
<path d="M23.6087 8.50377L14.5905 8.50205L11.8043 0L9.01815 8.50119L0 8.49946L7.29614 13.7563L4.50995 22.2601L11.8052 17.005L19.0987 22.2601L16.3126 13.7589L23.6087 8.50377Z" fill="#23AD7A"/>
<path d="M16.9442 15.6859L16.3125 13.7588L11.8052 17.0049L16.9442 15.6859Z" fill="#00532C"/>
</g>
<defs>
<clipPath id="clip0_1_1724">
<rect width="98.5714" height="24" fill="white"/>
</clipPath>
</defs>
</svg>
